<?xml version="1.0" encoding="UTF-8"?>
<!DOCTYPE svg PUBLIC "-//W3C//DTD SVG 1.0//EN" "http://www.w3.org/TR/2001/REC-SVG-20010904/DTD/svg10.dtd">
<!-- Creator: CorelDRAW -->
<svg xmlns="http://www.w3.org/2000/svg" xml:space="preserve" width="98.3722mm" height="98.3722mm" version="1.0" style="shape-rendering:geometricPrecision; text-rendering:geometricPrecision; image-rendering:optimizeQuality; fill-rule:evenodd; clip-rule:evenodd"
viewBox="0 0 9829.37 9829.37"
 xmlns:xlink="http://www.w3.org/1999/xlink"
 xmlns:xodm="http://www.corel.com/coreldraw/odm/2003">
 <defs>
  <style type="text/css">
   <![CDATA[
    .fil1 {fill:#040507}
    .fil0 {fill:#D9C4A3}
   ]]>
  </style>
 </defs>
 <g id="Camada_x0020_1">
  <metadata id="CorelCorpID_0Corel-Layer"/>
  <circle class="fil0" cx="4914.68" cy="4914.68" r="4455.31"/>
  <path class="fil1" d="M3526.84 7261.33c10.15,122 189.97,214.98 321.05,245.52 -10.81,-130 -54.03,-107.04 -140.45,-161.72 -79.75,-50.45 -86.99,-117.46 -180.61,-83.8zm1387.84 -7261.33c2714.3,0 4914.68,2200.38 4914.68,4914.68 0,2714.3 -2200.38,4914.68 -4914.68,4914.68 -2714.3,0 -4914.68,-2200.38 -4914.68,-4914.68 0,-2714.3 2200.38,-4914.68 4914.68,-4914.68zm-386.89 6600.32c20.64,77.27 185.91,213.08 249.54,279.29 48.15,50.11 38.09,58.65 128.19,60.66 -10.52,-126.45 -285.09,-358.83 -321.06,-358.83 -22.04,0 -52.2,13.44 -56.66,18.88zm-2322.97 -1529.77c0,133.08 36.38,289.83 114.38,395.54 29.66,40.2 40.6,53.34 93.37,57.72 0,-102.45 -2.57,-64.65 -28.65,-141.34 -17.23,-50.71 -22.01,-80.81 -39.41,-130.55 -80,-228.75 -37.71,-194.07 -120.8,-238.04 -12.94,23.04 -18.88,20.19 -18.88,56.65zm4570.42 1831.95c98.37,55.27 168.89,-46.08 297.46,-174.69 67.98,-68 184.21,-147.18 193.58,-259.69 -93.87,7.81 -196.62,129.66 -259.78,193.49 -75.28,76.05 -175.39,157.46 -231.26,240.9zm-2681.82 -3739.43c90.06,-7.49 309.1,-131.7 383.45,-183.13 22.77,-15.76 42.36,-31.7 63.83,-49.48 102.07,-84.55 93.87,-46.83 138.18,-107.33 -60.59,-34.04 -72.53,-20.57 -199.59,45.91 -159.9,83.67 -373.79,148.9 -385.87,294.04zm-226.63 -944.31c-74.62,6.22 -143.5,62.93 -190.29,93.02 -44.95,28.91 -541.03,331.87 -475.02,397.87 22.92,22.93 41.9,3.46 79.29,-15.97 111.76,-58.03 526.86,-386.57 586.02,-474.92zm-1454.23 2190.78c0,34.37 -1.19,2.04 18.88,37.78 79.39,-8.69 59.26,-17.81 90.11,-98.76 71.25,-187.07 25.86,-159.64 62.01,-315.72 37.94,-163.82 36.74,-61.86 36.74,-265.43 0,-72.2 5.8,-6.86 -18.88,-56.65 -102.22,68.46 -136.6,391.9 -153.83,507.18 -10.03,67.24 -35.03,115.77 -35.03,191.6zm3456.14 2700.7c119.46,-2.66 241.11,-96.65 315.28,-156.88l92.44 -77.53c2.9,-2.61 6.97,-6.42 9.84,-9.04 54.1,-49.39 104.29,-88.28 111.26,-172.03 -143.84,3.2 -324.45,161.61 -439.11,259.67 -59.23,50.65 -87.64,63.06 -89.71,155.82zm-2681.81 -2870.68c102.11,-27.26 109.33,-132.01 160.99,-330.04 21.55,-82.62 12.11,-121.63 41.58,-204.06 35.89,-100.41 47.46,-102.03 24.06,-202.46 -104.99,8.73 -58.99,34.54 -107.09,138.42 -59.36,128.18 -162.64,508.3 -119.53,598.13zm1605.31 -2001.92c48.25,72.05 35.87,56.66 207.75,56.66 130.59,0 220.22,-4.81 323.84,-16.11 138.9,-15.15 212.71,33.09 280.51,-59.44 -127.84,-61.33 -522.36,-37.77 -698.78,-37.77 -66.5,0 -86.27,17.74 -113.32,56.65zm-1416.45 3475.03c-2.87,-128.51 -39.53,-146.05 -72.8,-229.39l-101.37 -219.68c-21.09,-40.8 -27.29,-64.17 -47.13,-103.96 -37.93,-76.07 -139.02,-251.34 -231.96,-259.07 2.58,115.78 272.97,619.06 356,739.4 35.05,50.82 46.9,46.04 97.27,72.7zm604.36 1152.05c-6.24,-74.87 -52.64,-101.68 -153.61,-186.35 -53.91,-45.2 -488,-498.22 -544.41,-441.82 -51.47,51.47 83.58,151.38 115.35,190.99 135.84,169.41 278.42,270.77 452.08,397.78 60.92,44.56 27.05,39.4 130.59,39.4zm1491.99 887.64c133.01,0 217.18,-9.5 322.08,-17.87 138.89,-11.08 215.45,33.52 282.27,-57.67 -124.05,-65.64 -355.85,-37.78 -509.92,-37.78 -188.86,0 -377.73,0 -566.58,0 40.81,60.95 91.01,88.72 188.72,94.57 106.43,6.37 168.2,18.75 283.42,18.75zm-3021.77 -1605.31c0,146.65 56.87,214.15 158.83,351.09l78.94 91.04c2.76,2.73 6.8,6.58 9.62,9.26 27.15,25.75 375.85,380.78 375.85,209.61 0,-30.88 -470.84,-698.78 -566.59,-698.78 -30.91,0 -56.65,11.31 -56.65,37.78zm-402.41 -1818.87c46.22,-333.22 18.13,-579.75 142.18,-726.59l1306.82 -1696.06c78.53,-101.62 114.65,-122.44 266.64,-148.85 72.27,-12.55 134.58,-7.23 206.21,-20.42 614.01,-113.08 593.84,-43.12 1162.81,-46.73 177.98,-1.12 390.51,33.8 566.16,38.19 215.23,5.39 1004.79,41.24 1152.06,75.55 0,65.3 47.27,66.97 -15.36,134.4 -64.6,69.57 -682.84,383.28 -819.28,466.3 -82.58,50.25 -159.52,87.13 -244.45,133.27 -295.61,160.62 -682.72,468.95 -963.51,679.58l-500.25 387.39c-65.23,56.63 -34.7,43.55 -61.74,127.13l-173.53 563.02c-24.31,110.91 -111.45,353.47 -111.45,417.36l303.53 886.3c22.54,90.74 38.69,67.17 66.74,159.89 132.7,438.83 74.32,316.32 544.85,399.44 77.78,13.74 138.03,37.31 201.52,44l1017.49 134.56c46.02,0 79.8,-37.45 116.68,-53.3l927.22 -357.03c44.97,-17.23 58,-30.87 102.99,-48.1l703.95 -259.24c41.43,0 167.56,77.52 141.14,196 -14.57,65.39 -445.77,796.23 -509.82,927.31 -102.82,210.4 -175.47,223.24 -334.82,382.85l-528.81 528.81c-123.37,123.37 -236.67,217.75 -358.83,339.95 -92.42,92.45 -265.17,300.4 -395.94,322.6 -166.42,28.26 -736.19,-91.33 -923.45,-126.92 -177.1,-33.66 -89.48,-0.19 -297.37,-61.47l-1689.47 -444.65c-72.19,-31.95 -137.7,-114.53 -177.45,-181.39l-839.24 -1294.88c-132.49,-178.06 -129.46,-176.91 -129.46,-304.93l145.28 -1573.34z"/>
 </g>
</svg>
